{"title":"Fall Out Boy - Alone Together [Music Video] 720p [Sbyky]","uid":10098770,"size":38925264,"categoryP":"video","categoryS":"music_videos","magnet":"?xt=urn:btih:f6b6c7ce3b04e14990a6669aa477fa0cf58c0025&amp;dn=Fall+Out+Boy+-+Alone+Together+%5BMusic+Video%5D+720p+%5BSbyky%5D&amp;tr=udp%3A%2F%2Ftracker.openbittorrent.com%3A80&amp;tr=udp%3A%2F%2Fopen.demonii.com%3A1337&amp;tr=udp%3A%2F%2Ftracker.coppersurfer.tk%3A6969&amp;tr=udp%3A%2F%2Fexodus.desync.com%3A6969","seeders":0,"leechers":3,"uploader":"Sbyky","files":1,"time":1399350181,"description":"\n\nGeneral\nComplete name                            : Fall Out Boy - Alone Together [Music Video] 720p [Sbyky].mp4\nFormat                                   : MPEG-4\nFormat profile                           : Base Media\nCodec ID                                 : isom\nFile size                                : 37.1 MiB\nDuration                                 : 4mn 13s\nOverall bit rate mode                    : Variable\nOverall bit rate                         : 1 227 Kbps\nEncoded date                             : UTC 2014-03-07 17:20:51\nTagged date                              : UTC 2014-03-07 17:20:51\n\nVideo\nID                                       : 1\nFormat                                   : AVC\nFormat/Info                              : Advanced Video Codec\nFormat profile                           : &lt;a class=&quot;__cf_email__&quot; href=&quot;/cdn-cgi/l/email-protection&quot; data-cfemail=&quot;a3eec2cacde3ef908d92&quot;&gt;[email&amp;#160;protected]&lt;/a&gt;&lt;script cf-hash='f9e31' type=&quot;text/javascript&quot;&gt;\n/* &lt;![CDATA[ */!function(){try{var t=&quot;currentScript&quot;in document?document.currentScript:function(){for(var t=document.getElementsByTagName(&quot;script&quot;),e=t.length;e--;)if(t[e].getAttribute(&quot;cf-hash&quot;))return t[e]}();if(t&amp;&amp;t.previousSibling){var e,r,n,i,c=t.previousSibling,a=c.getAttribute(&quot;data-cfemail&quot;);if(a){for(e=&quot;&quot;,r=parseInt(a.substr(0,2),16),n=2;a.length-n;n+=2)i=parseInt(a.substr(n,2),16)^r,e+=String.fromCharCode(i);e=document.createTextNode(e),c.parentNode.replaceChild(e,c)}}}catch(u){}}();/* ]]&gt; */&lt;/script&gt;\nFormat settings, CABAC                   : Yes\nFormat settings, ReFrames                : 3 frames\nCodec ID                                 : avc1\nCodec ID/Info                            : Advanced Video Coding\nDuration                                 : 4mn 13s\nDuration_LastFrame                       : -41ms\nBit rate                                 : 1 098 Kbps\nWidth                                    : 1 280 pixels\nHeight                                   : 720 pixels\nDisplay aspect ratio                     : 16:9\nFrame rate mode                          : Constant\nFrame rate                               : 23.976 fps\nColor space                              : YUV\nChroma subsampling                       : 4:2:0\nBit depth                                : 8 bits\nScan type                                : Progressive\nBits/(Pixel*Frame)                       : 0.050\nStream size                              : 33.2 MiB (89%)\nEncoded date                             : UTC 2014-03-07 17:20:51\nTagged date                              : UTC 2014-03-07 17:20:51\n\nAudio\nID                                       : 2\nFormat                                   : AAC\nFormat/Info                              : Advanced Audio Codec\nFormat profile                           : LC\nCodec ID                                 : 40\nDuration                                 : 4mn 13s\nBit rate mode                            : Variable\nBit rate                                 : 126 Kbps\nChannel(s)                               : 2 channels\nChannel positions                        : Front: L R\nSampling rate                            : 44.1 KHz\nCompression mode                         : Lossy\nStream size                              : 3.80 MiB (10%)\nEncoded date                             : UTC 2014-03-07 17:18:06\nTagged date                              : UTC 2014-03-07 17:18:06\n\nShared By Sbyky\n","torrent":{"xt":"urn:btih:f6b6c7ce3b04e14990a6669aa477fa0cf58c0025","amp;dn":"Fall+Out+Boy+-+Alone+Together+%5BMusic+Video%5D+720p+%5BSbyky%5D","amp;tr":["udp%3A%2F%2Ftracker.openbittorrent.com%3A80","udp%3A%2F%2Fopen.demonii.com%3A1337","udp%3A%2F%2Ftracker.coppersurfer.tk%3A6969","udp%3A%2F%2Fexodus.desync.com%3A6969"],"infoHash":"f6b6c7ce3b04e14990a6669aa477fa0cf58c0025","infoHashBuffer":{"type":"Buffer","data":[246,182,199,206,59,4,225,73,144,166,102,154,164,119,250,12,245,140,0,37]},"announce":[],"urlList":[]}}